<?xml version="1.0" standalone="no"?>
<!DOCTYPE svg PUBLIC "-//W3C//DTD SVG 20010904//EN"
 "http://www.w3.org/TR/2001/REC-SVG-20010904/DTD/svg10.dtd">
<svg version="1.0" xmlns="http://www.w3.org/2000/svg"
 width="540.000000pt" height="540.000000pt" viewBox="0 0 540.000000 540.000000"
 preserveAspectRatio="xMidYMid meet">
<metadata>
Created by potrace 1.14, written by Peter Selinger 2001-2017
</metadata>
<g transform="translate(0.000000,540.000000) scale(0.100000,-0.100000)"
fill="#000000" stroke="none">
<path d="M2540 5329 c-340 -19 -663 -103 -975 -253 -179 -87 -299 -159 -460
-280 -145 -109 -380 -342 -488 -483 -302 -397 -484 -848 -537 -1333 -15 -135
-15 -425 0 -560 53 -485 235 -936 537 -1333 108 -141 343 -374 488 -483 161
-121 281 -193 460 -280 405 -195 827 -278 1289 -252 248 13 523 69 753 154
238 87 540 260 753 430 109 88 296 275 384 384 170 213 343 515 430 753 193
525 211 1117 51 1657 -262 887 -982 1576 -1884 1805 -139 35 -307 62 -426 70
-202 11 -243 12 -375 4z m1525 -1580 c21 -6 54 -26 72 -44 59 -59 40 -130 -58
-218 -55 -50 -319 -195 -746 -411 l-111 -57 -296 -309 -296 -309 -114 -57
c-112 -57 -114 -58 -140 -41 -16 11 -26 27 -26 42 0 14 42 93 94 177 52 84 93
154 91 156 -2 3 -230 -71 -506 -163 -542 -182 -536 -181 -569 -122 -13 24 -13
30 0 53 8 15 36 38 63 51 26 14 47 28 47 32 0 6 -189 244 -247 311 -177 205
-182 231 -56 294 67 33 96 33 163 -5 30 -17 153 -82 273 -145 l219 -114 691
359 c381 198 758 392 839 431 l146 73 122 7 c67 5 124 11 127 14 11 10 176 6
218 -5z m81 -1855 c92 -44 99 -181 11 -234 -31 -20 -61 -20 -1405 -20 -1516 0
-1411 -5 -1452 63 -22 36 -25 72 -9 114 13 34 47 72 74 83 11 5 634 9 1383 9
1233 1 1367 -1 1398 -15z"/>
</g>
</svg>
